<mxfile host="app.diagrams.net" modified="2021-06-21T10:10:08.074Z" agent="5.0 (X11; Linux x86_64) AppleWebKit/537.36 (KHTML, like Gecko) Chrome/92.0.4515.51 Safari/537.36 Edg/92.0.902.15" etag="XkCWUZ4jHYGpxvauAVee" version="14.8.0" type="github">
  <diagram id="lW4fqJQ_YWO6Xe5_qP-H" name="Page-1">
    <mxGraphModel dx="931" dy="534" grid="1" gridSize="10" guides="1" tooltips="1" connect="1" arrows="1" fold="1" page="1" pageScale="1" pageWidth="827" pageHeight="1169" math="1" shadow="0">
      <root>
        <mxCell id="0" />
        <mxCell id="1" parent="0" />
        <mxCell id="bmUnphvoSeGLtTHIExNd-17" style="edgeStyle=orthogonalEdgeStyle;rounded=0;orthogonalLoop=1;jettySize=auto;html=1;entryX=0.5;entryY=0;entryDx=0;entryDy=0;" edge="1" parent="1" source="m8kTnEoZUfs-9lLmZkEn-2" target="bmUnphvoSeGLtTHIExNd-16">
          <mxGeometry relative="1" as="geometry" />
        </mxCell>
        <mxCell id="bmUnphvoSeGLtTHIExNd-26" style="edgeStyle=orthogonalEdgeStyle;rounded=0;orthogonalLoop=1;jettySize=auto;html=1;exitX=0;exitY=0.5;exitDx=0;exitDy=0;shape=link;" edge="1" parent="1" source="m8kTnEoZUfs-9lLmZkEn-2" target="bmUnphvoSeGLtTHIExNd-6">
          <mxGeometry relative="1" as="geometry" />
        </mxCell>
        <mxCell id="m8kTnEoZUfs-9lLmZkEn-2" value="CCA" style="ellipse;whiteSpace=wrap;html=1;fillColor=#f8cecc;strokeColor=#b85450;" parent="1" vertex="1">
          <mxGeometry x="330" y="70" width="60" height="40" as="geometry" />
        </mxCell>
        <mxCell id="m8kTnEoZUfs-9lLmZkEn-4" value="PLS" style="ellipse;whiteSpace=wrap;html=1;" parent="1" vertex="1">
          <mxGeometry x="1010" y="140" width="60" height="40" as="geometry" />
        </mxCell>
        <mxCell id="m8kTnEoZUfs-9lLmZkEn-5" value="LDA" style="ellipse;whiteSpace=wrap;html=1;" parent="1" vertex="1">
          <mxGeometry x="1010" y="40" width="60" height="40" as="geometry" />
        </mxCell>
        <mxCell id="m8kTnEoZUfs-9lLmZkEn-6" value="BLM" style="ellipse;whiteSpace=wrap;html=1;" parent="1" vertex="1">
          <mxGeometry x="1010" y="90" width="60" height="40" as="geometry" />
        </mxCell>
        <mxCell id="bmUnphvoSeGLtTHIExNd-2" value="" style="shape=curlyBracket;whiteSpace=wrap;html=1;rounded=1;flipH=1;direction=west;" vertex="1" parent="1">
          <mxGeometry x="400" y="40" width="20" height="90" as="geometry" />
        </mxCell>
        <mxCell id="bmUnphvoSeGLtTHIExNd-3" value="&lt;p style=&quot;line-height: 100%&quot;&gt;1. Unsupervised&lt;/p&gt;&lt;p style=&quot;line-height: 100%&quot;&gt;&lt;span style=&quot;text-align: center&quot;&gt;2. Maximize \({corr}(x, y)=w_1^TX_1X_2^Tw_2&amp;nbsp; &amp;nbsp;\)&lt;/span&gt;&lt;br&gt;&lt;/p&gt;&lt;p style=&quot;line-height: 100%&quot;&gt;&lt;span style=&quot;text-align: center&quot;&gt;3. Linear Projection&lt;/span&gt;&lt;span style=&quot;text-align: center&quot;&gt;&lt;br&gt;&lt;/span&gt;&lt;/p&gt;&lt;p style=&quot;line-height: 100%&quot;&gt;&lt;span style=&quot;text-align: center&quot;&gt;4. two views&lt;/span&gt;&lt;span style=&quot;text-align: center&quot;&gt;&lt;br&gt;&lt;/span&gt;&lt;/p&gt;" style="text;html=1;align=left;verticalAlign=middle;resizable=0;points=[];autosize=1;strokeColor=none;" vertex="1" parent="1">
          <mxGeometry x="425" y="30" width="280" height="110" as="geometry" />
        </mxCell>
        <mxCell id="bmUnphvoSeGLtTHIExNd-6" value="&lt;b&gt;[1]&lt;/b&gt; Relations between two sets of variates&lt;br&gt;&lt;b&gt;[2]&amp;nbsp;&lt;/b&gt;B. Thompson, “Canonical correlation analysis,”&lt;br&gt;&lt;b&gt;[3]&lt;/b&gt;&amp;nbsp;&lt;span&gt;Multi-feature canonical correlation&amp;nbsp;&lt;/span&gt;&lt;span&gt;analysis for face photo-sketch image retrieval&lt;/span&gt;&lt;span&gt;&lt;br&gt;&lt;/span&gt;" style="rounded=1;whiteSpace=wrap;html=1;align=left;fillColor=#f5f5f5;strokeColor=#666666;fontColor=#333333;" vertex="1" parent="1">
          <mxGeometry x="20" y="60" width="280" height="60" as="geometry" />
        </mxCell>
        <mxCell id="bmUnphvoSeGLtTHIExNd-13" value="" style="shape=image;verticalLabelPosition=bottom;labelBackgroundColor=#ffffff;verticalAlign=top;aspect=fixed;imageAspect=0;image=data:image/png,iVBORw0KGgoAAAANSUhEUgAAAZgAAABcCAIAAADcVzQUAAAgAElEQVR4Ae19iT9V2/v/OoMTGh2zqJAiuYpwKZEkzfNIg1SUblRXc3FTFKUoKiVRKpJmJPN87NJA+9660+fW7Z5/4/fyffqtu9pndg6O7url1evZz17rWc96733ee43PQqyUoX8UAYoARWBAI4AGtPfUeYoARYAiwEoZSmS0QUoRoAgMeAQokQ34R0g/yBQBigAlMkpkFAGKwIBHgBLZl0d4uTBDIBQ4jB0TPCfQ289TIBQ4jrOfvzR00hQ3gVAQfzRWfz56m3dsEIlEbpNdZy8IdnJ2FAgF3n6ecxbNGuMwSiAUFJfn64+r1BOKQN8gQInsC5Gt37LmcPJeAH3P4R8QQskZCXA5d3FISeWNvnke6pTi5etR+CgXUvoH+SGEnrc/YqXM24+t41zGdv4tUccITUMR+JYQoET2hch2H9qBn+v3/l4IofrX5aDZ99Ours/6wg7tH+oSTu0Hx17/1WxoZGjvOBp7Hp+gRy1H7BUVKAK9jQAlMu7oQMcfjSKRaPwEp96GXnv7eXezEULhm1drb4paoAgMaAQokXGJLOdWJkJo0/Z1+v9cN+/YgBC6dPOc/rtKPaQI9CoC3wiRlTeXPm0qIf9qXj5hpcyztgek8mlTScObClbKtH+oI/VvPrZglDdsXYsQyi3KwhqOUCl5SOYFuYWtYqWM5H0Neav152pOXrmXjW+fkblABv/ffGwhb9V0PCUtuEwcb2Bg8PL3BlKJZR1igm1SgSKgnwh8I0S2c1+09Ugr9P//WdlYHknZx0qZ+IRYMwvT/69GE9ycz+aksFLmYe2dZWsX8fl8Ho83b8nstl/+ZRwnZ0dDI8PXfzUremB7Dv8wzmUstsnj8VaELb7xIIeVMsUVBTNmT4dbrt+55JdeVmSE1Gflp/sF+GCDCKFpM3xhqqH53fOwyFU8Hg8hZGltkZh6AGds6qrk8Xg+07ywhiPoEBOOZXpJEdA3BL4RImOlzJU75zEXAFsB1mcuJWP906YS8gHY2FpvjY0gNXWvyhBC/kF+pFJWfvOxZbSDHZid6O5CJoBxq4ht4ZrODyxaMQ/7+eK3emxT8r7WeLCxt59n+4c6rGSlTFr2cYTQnsM/kEqOrBNMODbpJUVADxH4doisha3CRHDmUjLG+t7zm1hf1nwP68ubS8WmJpx+WXJGAkLowLE9OJkiYUd8FJgdOmxI56c2SNbUVWk3xnbLDxsV5VKiL7ifg/0sriiAlF2fJTNDA32mTun4s4mTd8mq+Qih+1W3OHryUieYkAapTBHQTwS+HSJjpczQYUOAC8hVCCfOHsUEkVdyET+GFWGL4/Zvx5cgzF8aihB60lDM0cte3q+6hc1CF5L5tX6iu8uGrWtlE6uj6fxbYiIeATZjftwKWVatX+bpM5nDtnDL0src1Fz87p925ca1x0S5fXqXIqAPCGhAZK/+9++wkeR9Dafr1PmpTbbVgGvY8WeT5H0NvuwlYYKbMxDB+i1roIiuzxKHsWMMDQeBPiUzEfR1r8rEZmLJ+1rSk1f/ax5hMnz4iGGkUok80s4azEZEh3f82eTl6xG2aaWS9CpvQSMLIeT6XXd3NTJmvbunG/Prv91MbKG4PB8hNGvuDKxRJGiJiSKzVE8R0CsEVBNZ+4e61KykWXNnGBoZslImuyDdcZw9QmjwEOOT539ipcyDmtsBwdMMDAxEItGsuTPIYfJ3/7QnnNrvM81rY1TYsrWLbGytydGrxLSD7p5uo+ztRtnbRcdFvv3Ymph6YJS93QQ3Z9m2kjqohcyfCcwSMi8I0p+5lBwyL2iiuwvoY/dvA/3GqLDouEjSZlZ+OqyS5/P5h5P3kp1QMhkpr9uyGsyOsrfzD/JbEbZYZfuIzC4rn89LA4M8Hi9s08qJ7i4cqmWlTOentoRT+x2cuh+BlY1lalaS8rlRbTCR9ZBqKAL6iYBqIiupvLE3MQ5+YBHbwmP3bysqu56Rmzp4iLHxYOMjKfuC5wSezUm5/eQaTNhFxW7CVY07EIMQKq0qBM26Lav5fD4eAGKlzN1nBQYGBgihu8+6R4Wetz8yNReXN5diCxoJkTHrwU+3ya6Qcbyr091nBSHzgkC/ct1SVsq0/lxtai5ufvdcI+OyifNKLoJZhNCCZXO0ZDFWynT80Ygbj07OjuRcqmzpamr6GBM1vaLJKAK6RUA1kUF5RsZGCKGbj67i4peuWYgQ8pnmhYe671d3Dxs5OTviNNB2w0NOMNG2bddmnICVMrH7tyGEfKd7v/unfWrA9+eunCTvaiQnph0EZjG3NIPG49SA71kpszEqDPTTZ05lpUzMni0R0eEaWZabuPNT2/ARw8CyOk3IO0/z5NohlTNC/MGgX4APqe+xrCUmXZ8l+aWXT104pnxWocfu0YwUAZ0goC6RwTh049tnuNQf9nZP2+HRKFhlihAyHmyM01y6eW7XwRh8eTYnBSEEzSKsfPuxdfwEJ1j0sHD5XKzvgZBblAUswOfz335snTTFDYbhDybtAf04l7Evf2+wsDLH+yh7UAqZxcPLHSxPnDSB1HPkW4+v+QX4DBok4uhlL7fGRoBBoYFQJ6OK2mDS8KZivKsTn88HlxYun6t9q1O2ylRDEdAegZ4T2e5DOzhE1vm3BN54Wbce1t6JjosMCJ6GEFoetpiToLiiQCDo/rWoMzLFyUtePmt7AA4ghE6cS3D3dIO7F/JOg37osKF7E+PWbFxO5uqxHB0XaWouBss8Ho+z7B6brZQ8LK4o8PByV0lkObcyzS3NAAqEUGpWEjbSY0EbTELmBeUWZXV+aitrvuc73Rsh9NPpQz32hGakCPQeAr1OZI/ri0PmBe2Ij3r5e8O5q6fkEhkrZaBpE7owWJuqdn5qEwgFwCxiM3F2QTpYK60qxARnaWVexXQHvVH01/6h7knjXUV3sf7QiXiHsWOqXzweNEgExnEUIJyGFJaHLVZOZEVl18Vm4uLyfA/vSWAwZP5M0gIpv/itPrsg/cylZNjJRN7iyD3G5HF98TGCtprfPReJRLMXaPWAOL7RS4qArhDoXSLLvJYmNBCez0sDdxUR2dmclBkh/iNMhiOEcOKe1dBu9EhggXEuY3E/qO2XakxkS9csVGT5xW/1cQdiho8YRob0kZs4/XKKpbVF9YvHrJQJCg0A477TveUmBqVyInvSeNfMwvRyYQYrZfYf2w0GjQcbk0tesPH80stiMzH0+AwMDGAzFr4rK/QMk5qOp5zQZvaOoxcsmyNrn2ooAv2OQC8SmeR9jdBAOHa8A66kXCJreFMxxmFUU1dlalYSQsjc0kybsSHoASGE0rKP43JZKTN4iDFCiM/nK5kSzSu5CNMRyoks51am2NTkQc1tsA+bARBCAqFAyTyjEiKrYh5Z2VjiOI5VzCNMu7hRievS/O75tEDfJ41333xsufEgx8bWWiAU4OkUnIwUtMEE2+n6LBkydHDSmcNYQwWKgP4goC6RQXOJHOzfdbB7aQUZDKvzUxv8AqF6lwszEELDRwx7+7EVNEdS9iGElqyaT9Y/IHgaXqcaOKt7zm7Z2kVkAo3kleuWIoTsRo/ktCacnB0RQvOWzFZurfb/9loqIbLcoiwjY6O8u9nYTsObCsw7Sn7niois+sXjUfZ2MXu2YIOslLF3HA02ZVtAiakHyJ5vdkE6Qkh5o0xLTMCxy4UZdmNsyTAhpMNUpgj0LwJqEdnbj60w9lQpeYjd3bR9HUKIHMfBO/tgz3NJ5Q34NUbFbioqu/7jkZ0Q48HJ2THvbjasJjt6ch8ekmelTPWLx0IDIULoQt5pXJBGAkSpTkw7yMkVEDyNx+M9rL3D0XMulRNZRm6qSCSyG2NL5pK8rwWfuwl0jK2iRplcInvSUAxBOzgTBW6TXQE6oYEQVtjhEjkDfECjSgiUlTJaYtK9CvdvyWSv7+hpAPgpUEHfEFBNZHl3s4PnBMLvyj/I70Le6Y4/GmP2bIE2moGBwabt62o6nhbcz8GjRbMXBEObZf2WNRCCxtzSLDUrqe2Xalh45TJxfBXzaNP2dUIDoc/UKTgoxemLJ2Ds3NBwUFTsJrxCTX3Uzl05aW5pRu4ugLxrNi6fGRqo0o4SIluyegHUBbYQARGnZR+HtXKAD0LIRDxC7qyoLJElph4wNDKEjDa21ifOdR8RcL/qlrefJ7aGEBKJRNNnTlXU3S6uKFDeX2aljJaYsFImOi5Sy7FLlcjTBBQBbRBQTWTaWGelTO2rsvvVt3Dvsv1D3YOa25x+n5ZFkNnrXpWRO8PxrTtP89RZ26GEyLCpngmyRNYzO5xckTHrZbufnDRaYpKckaCThSAcr+glRUCHCPQ6kenQ1z4wNbCIrOblk/GuTooaazqBK/Na2omzR0lTtINJokFlPUGAEtlXC8p6j8jmLw0VGgh12BR9+7E1dGFwRUsP96Wq8/7lFmV5+Xokph6Av6Mn9y1eOT/ndqY6eWkaikBfIkCJrNeJrP51+ZGUfcOGd+/K3LpzI7lnvsdP+t0/7RHR4Y/qinpsQWXGksobsMGWHLCzsbXmhG9SaYcmoAj0AQJfEVnho9yc25n4r4WtKq0qxJc5tzPbfqmWvK/FGtkgM0o87vzUhjOC8O6f9ry72aSSlTKVkoeguXrnghJrvXSr91pkunU45set5Gxmx59NKidkdesAtUYR0CsEviKy4ooC1+++hO7avGND+4e6e89v4mBe0XGRzK/1HX80JpzajxDadTCm449G9SvT9VmSdf0MBCwVCAUwfnw+Lw3mMfl8/rmrp1gpU/+6fGX4kqHDhmTkpqpvXFcpy5tLEUI74qN0ZbA37OyIj1q0Yh7u8R1M2jNthq+iZR+94QC1SRHQNwS+IjJWyuBAETiI2KHjP0LnAnbkQBCx4DmqlzLIrSqs5Bg6bAi+O2vuDISQ7SgbrIlPiD2YpDpqPk6vK+FyYUbowmCE0BiHURm5qRq1N3Xlg0o7iakHyL4eyFpGDVFZKE1AEdBzBLhEBsvxEUI5t76M6eJgXni6asGyOZjmNK0ejvOH42JDLGYIPwsRUN093eTuMdS0LJqeIkAR+I8gwCWyp00l8JGHgC0tbNXY8Q6ggb5epeShOitLFcGHGxSw5zHndqaN7ZfI9xCy+eT5n8ijQxTZoXqKAEWAIoAR4BLZ67+aYf369t3dcVy37dqcee1LIHk4JG3V+mW3n1zD+TUVrt65ALQIy1b9g/xOnv8JNPerbr37p13RoUGaFkTTUwQoAv8dBLhExkoZS2uL7q3dqxe0f6j73r/7IGsIDxsRHd7wpiIgeJosOlnXz5CHYMsmwJpnrfeBtlIyE288yIE1BKDJLkg/n5e2c180Tgxj/2sjVnj5emyMCuvVlZ9koVSmCFAEBhYCcohsyveTEUJ+AT67DsbATCJMZYYuDN60fd31e5fIGr7+qznr+hkbW2s1T0Lr3n/+f8Fg4/ZvnzF7et2rshe/1QORHT25z3e6N8lWr/7XPH9p6KkLxw4m7RGbmkwL9CWLpjJFgCJAEQAE5BAZnK440s56yveTYfUjTCw6ONkropKQeUFqEhkrZeA4SLfJrivDl4ATsALDbbIreQITK2Uyr6XheBsX8k7zeLz2D3X0yVEEKAIUAQ4CcogMThWBsPeQesPWtdBowlOZHCsh82eqT2Q+07y6wxAK+M9a74Mdl4njEUJGxkacI9rIE7Yf1t4RGgjx5nOOA/SSIkAR+C8jIIfIIFKr9UgrzBoHjnWfQjTBzVkRUhoR2fKwxZwYhzNDu8MEbYwKU2SflTJHUvapDPOgJDu9RRGgCHzDCMghssJHuQihQ8d/xNWGicvMa19C72M9FuQSWWLawZmhgWRQWUgft387Quh+9S2cPXzzapFIpOSIttd/NQfO8m/qqsRZqEARoAhQBDACcois4U2F2NSE3H5UUnlj7HgHfJYHzowFuUS2ZPUChJBssNbTF08EzvLHeVkpo/KItui4SHpALIkYlSkCFAESATlExkoZvIgfknb82aQ80IJcIuv8W5J05jDMe5JFNnVVPm//6kC26hePmzr/PfqXTMxKmTOXkgsf5YJSCZlyctFLigBF4L+DgHwi07T+wXMC10as4OR690/7j0d2anlcRea1tNSspMa3zxrfPqtoKU04tZ9TCr2kCFAEKALaEhnEtLCwMndydrz1+KsV/4/qirQMyXCtONvAwAAmTOH/a8X/Hl9EHx5FgCJAEQAEtCUyiiNFgCJAEeh3BCiRfRUhtt+fB3WAIkAR6AEClMgokVEEKAIDHgFKZAP+Efbg80WzUAS+MQQokVEiowhQBAY8ApTIBvwj/MY+rbQ6FIEeIECJjBIZRYAiMOARoEQ24B9hDz5fNAtF4BtDgBIZJTKKAEVgwCNAiWzAP8Jv7NNKq0MR6AECA5vI2j/UDRokMrc0C5zlP3tBsEAoMBGPmL80dNoM30GDRJwYGz1AR4dZNu/YIBKJ3Ca7zl4Q7OTsKBAKvP085yyaNcZhlEAo4OzS12G51JRcBC4XZgiEAoexY4LnBHr7eQqEAsdx9vOXhk6a4iYQCuKPxsrN1S9Kd0+3IUMHf+/vFbowWGwmFggFoQuDg+cEik1Nhg0f1vmprV+80rdCBzaRXcg7vWDZnNd/NbNSpqjseveZKavmA8SJqQf2JsbpD9xevh44hod/kB9CCEKAvP3YOs5lbOffEv1x9b/gyfotaw4n74Wa7jn8A0IoOSMBLucuDimpvKEnILT9Uj3BzbnuVRkc+Tp4iPFIO2vw7WlTyYyQr8Jh6YnP/eLGwCayQyficTjsnfuiEUKnL54AHHOLssjYjf0CLi60/UMdjtvx+q9mQyNDe8fR+C49xxND0WfC7kM7cFnf+3fHXsdxPff9tAuOqsAJ+lG4cuc8Pgz75sMrCKGV65aCP28/th5M2tOPvulV0QObyEgoPX0m8/l8TtR/MoGeyHl3sxFC4ZtX64k//3E3Ov5oFIlE4yc46T8O23ZtRggpCdSs/1XoPQ+/ESJjfq0XCAUTJ03oPaR0ZXnzjg0IoUs3z+nKILWjDQI5tzIRQpu2r9PGSN/k/c5jokAokLyv7ZviBlYp/Ulk5c2lT5tKyL+al09YKfOs7QGpfNpU0vCmgpUy7R/qSD0ZsjHr+hmEEOc0OfJJNL59RuYFGYp787GFvFXT8ZTMqEjusUGXieMNDAxwj5hjv/ZVGekMyKyUaXhTwdE/a3sA4yaknjwVlGO5vy4f1xfrtujXfzWTVQa5ha3q/NQmq4fzA0n0KlpKSX/ghLDcoixSScqVkoeyZlvYKlbKSN7XkLdaf64mMyqSe2aw7ZdqgYDv4eUu16xuMZFbRB8r3/3T/qTxrvqF9ieR7dwXbT3SCsdNtLKxPJKyj5Uy8QmxZhamWD/BzflsTgorZR7W3lm2dhGfz+fxePOWzCajNoZtWokQuvEgR1HNs/LT/QJ8sE2E0LQZvjC+2/zueVjkKh6PhxCytLZQ88j0nhls6qrk8Xg+07rPb5f7l345xd3TDftpZGwEYyJZ189McHPGeksr8x3xUayUefFbfUR0+AiT4QghD+9J+jNKzUqZ0qrCoNAA48HGcmvaY2VTV+XaiBWGRoYYjYnuLnklF5lf69dGrCAjcQbO8ocBpqzrZ6YF+iKEhgwdvDU2gizaydnR0MgQ5otIPZb3HP5hnMtYXBaPx1sRthjetOKKghmzp8Mt1+9c8ksv41xKhJ4ZPHf1FELoh73dD132T7eYyNrvY82FvNPOruM0WnXQn0TGSpkrd87jVwTYCiA7cykZ6582lZA42thac95FVsqMcRg1ZOhglVPRi1bMw2Zf/FaPzUre1xoPNvb289T0AGBNDaZlH0cI7Tn8Ay5aVnjxWz3+Na7ZuBwnaHhTgZ3nsO3ilfM9vCfpz9Tn4/rinfuinZwdEUI6JzIAZOvOjRgN8nitVeuXgd7MwhRDx0qZ5+2PEEJX7pwnlXWvyhBC/kF+pFJWfvOxZbSDHZid6O5CJoARz4ht4RrND/TA4MrwJQihorLrZOkcWSeYcGz28eXVOxc2RoWZmosRQn1KZFn56dqcb9TCVuHX8cylZIzavec3sb6s+R7WlzeXik1NOP2yKqb7HZ0ZGoiTKRIK7udgs8UVBZCs67NkZmigz9QpHX82KcqoSK+pQTjFXSViQAEIoVXrl5FFDxk6GPwnz6bq/FtiY2t952kembJ/ZebX7o/Eo7qi3iMyaKEAGuSRg/t+2gVKc0szEoRjpw9Nm+FLalgpk5yRgBA6cEz13N+O+CgwO3TYEPy9bOqqtBtju+WHjRyz6lxqanCknfXwEcOU06VOMFHH+d5LA2/O4eS9fUpkNS+fiE1NtPwJDR02BF4RchXCibNHQYkQyiu5iIFbEbY4bv92fAnCT6cPIYSOnuzulir/6/xbYiIeAZZjftwKiVetX+bpM5lDjsrt4LuaGrS0Mjc1F6s8CyooNACcJD9KFS2lAgEf9Nt3b8Y+pGYl+QX44Ev9EeAD00ststKqQvyG3H325ZvEShncRubz+Zhxuj5L7B1H33x0lQPO/KWhCKEnDapH8e5X3cLFQReS+bV+orvLhq1rOTbVvNTIYHlzKUIodGGwcuM6wUR5EX1zFz4w5Muvslz5XUt1ZkZaf64eO94BIaQlkeGhn/Vb1oC7XZ8lDmPHGBoOglcnJTMR9HWvysRmYlnfps+cihB6UHNbZW1ZKQNtIoSQ63fdfYTImPXunm7wHVAnu2wa9Q0Wl+cjhGbNnSFrhKPZGBUGdXd2HYdvLVu7yMjYCPRLVi8A/bt/2se5jFVzdAab6huhV4mM+bUeM8uFvNNQo+ftj/B3ESFU/eIx6M9dOent58mp9av/NY8wGT58xDCOXtHlSDtrKDEiOrzjzyYvX4+wTSsVJVZHr77BH4/s5JyZLde+9pjINdv3Sh0QWXxC7Ky5M2J+3Lpw+Vy/AB9Fre6Xvzd4eLkLhAKE0PgJTh7ek2L2bOlZhUPmz4T3I2ReEFg4cyk5ZF7QRHcX0Mfu3wb6jVFh0XGRZCn3nt8M27QSxunXRqyQ/eSSiUE+n5cGZnk8XtimlRPdXWSZUTaXEo06Bjs/tSWc2u/gZI8QsrKxTM1KUj7DBU1rhNAIk+FQdM3LJyPtrMMiV4HzvtO9QZ+Vn65oJkuJz31zq1eJjJUyuHF96EQ81GjV+mW7DsYARAgh/D64fufCOX8rKz8d9lfw+fzDyXvJ4QtF4Kzbshosj7K38w/yWxG2WGXLWpEp0KtjsP51edyBGBhS8JnmlZGbqtymNpgot9yXd7UlsuSMBLGpCV7WsH7LmsiY9Uoq4Ow6TvsWWWTMeng/3Ca7QlnjXZ3uPisImRcEepi2a/252tRcrP16144/GnFbz8nZkZz6VFJTJbd0bpCVMpcLM/CvEY58D9+8em9i3KET8aDHGwMmTXHLuZ2pxL1+vNXbROY22RXQgLe0/nW5lY1lx59NMIeLt3lcuXP+O4+J2uOQV3IRP5QFy+ZoyWKslNG5QVbK9DEm2qMq14K2ROYf5Ocwdgw23dRVuTEqDF/KCjohssS0g/B+wOhsdkH61IDvWSmDu1fTZ05lpUzMni0R0eGyPvRAMyPEH0pUZ2ipUvKQnBSTW5xGBuVa4CjLmu/h30xZ872mrkpLa4sXv9Vn5aeD3tDIkJUy1+9dgg4yJztcdv4tIQeP5KYBZea1NHdPN/X/lH/ecEG9TWTzlswGNOYtmc1KmYjo8LgDMayUwYMVPx7ZyUoZL1+P7IJ07FWPhc5PbcNHDIMSZQdqSbO1r8rSL6dkF6QrnwRX3yBpXLmsJSZdnyX5pZdPXTimcj4K3IiOi1T/tXH3dCMn9JRURFsim7s4BCEUER2OJ/KVDzzphMhyi7Lg5eDz+W8/tk6a4gYjPgeT9oB+nMvYl783WFiZ491wSiBQ59bW2AiwLDQQKllBWsU8WhG2WCAUqBwEVNOgOr5BmjcfW/j8L+P6eXezt+7cCFMT96v/HXJu/bl6asD35/PSZM12fZakZR+3dxwtO08nm5iVMjcfXgnbtFL9v59OH5Jrh6PsbSKLit0Ez9HTZ3Lrz9WWVuYwShA8JxD0YZGrbj2+Nt5VZ9uPPLzcwbKSPST7j+0WiUTw+EzNxbh7ywEHLtUxKDejIqU2mDS8qRjv6oRfvIXL56psdZ44e1T91yZs08rr9y4p8pzUa0tkNx9egWqMd3VSsrgUF6kTInvW9gBeDoTQiXMJ7p5uYP9C3mnQDx02dG9iHLmiCjvQAyHnVqa5pRme/kvNSpJrpP1D3c1HV9dvWaOy76ymQbmlKFFa2VhC9Q8c22NhZQ5japL3tRir4+lHnJwd5b5qxRUFxeX5Q4cNUZPIlLihza3eJrLj6UcAjZF21tt3b96688syCHhqsCJnRog/uT5Rm+pEx0XC+iaEEI/Hk7sD5Fpx9tI1C5u6Kplf65MzEgYNElnZWCpaM6GOQU0d1gaTkHlBuUVZnZ/ayprv+U73Rgip+cXS1EmV6bUlMlbKXCvOtrAyh/djRdhiJSueWSmjEyLr/NQGkwYIIbGZGPcCyLlkSyvzKuaRkvqr2Y0qKrsuNhMXl+d7eE+COobMn6nEbGpWknIi09QgK2XU6auyUsbbzxM8FJuJyT41npUTm4nTso8rcX6Uvd23TWT5pZcBIqGB0MLKvKnzGaCx/9juL9CZmjg42SviEY26UYdOxDuMHVP94vGgQSIwjqMAkY8gMmY9HmKG3i5CSO4mLTUNgnE1+6qslOkxJo/ri48RDe3md89FItHsBSoWfJB116GsAyJjpUwLW7Vk9QKYCnT3dMOLcWQd1QmRsVLGbvRIeDnGuYzFTYy2X6pBiRBaumahbOmgUb8b9aTxrpmF6eXCDFbK4HfdeLDxq/91hzOT+6ecyDQ1qH5flZUyS9cshOobGBhAOCrwcPwEJ9CPsrfDIwBynf/mib53mx0AAAaKSURBVKzm5RP8hpArITKvfZmYRgidPP+TXHA06kalX06xtLaAxRx4iR+eOCbtcz63py+eQAg9a71PpmGljPoG4V1Vv6/aY0xqOp5yXid7x9ELls3heN43l9oSWVb+v2OiNx7kiE1NEEI5txROigGR3X5yTcvqQTsWIcRpYgweYowQ4vP55c1fbfQli1OzG1XFPLKyscTB86DXAz8D3AYkzYKshMg0Nah+XxWKjt2/DdxbGb6EdAxPLBxPP0LqZWX1iezUhWOW1hbq/y1bu0i2OFlNb3ctuz5LRKLu9pFAKCAZpKTyBkBnO8pG0WdY/W5Uzq1MsakJHiyG3xgUqnLKO/5orPVIK/xtBog0MqhRX5WVMtpgQj7Brs+SIUMHJ505TCpl5TUbl6v/2lhaW6g0CEVoS2TBcwLJ5snexDiE0MUbZ8H6y98bLuSdJrcoTprSvb2ZE5Gm9lXZ5cIMDrvLQkBqVq5bihCyGz2Skwt26sCcFJleVlb+o61+8XiUvR1npZu942h43ZV8dhQRmc4NytYIPuYCAZ/zPYft8dYjrd5+bJXNRWqUY0KmLK0q3H1oh/p/KlczgfFKyUMlW5SKyq6TezZIf9SX4SEuXvklLDBkxPveyI1cpE31u1G5RVlGxkZ5d7NxdnLHq8qfpdtkV04aTQ2q31fFHvYME5wdhMuFGXZjbMluMicBXGZdP6P+a7P70A68L1CuNayEjT1yV/Z3fZbk3M6E0C84PStlvlrZ7+3nSc4rHzi2x0Q8Aq8XhSXsZLcZdngsXbOw/nX5waQ9zK/17/5ptx1lgxCCOBZkSUpkiDUs+9oFBE/j8XgPa+8oyQu3lPxonzQUQ4wNzugsXnEjNBAqWqYgl8h0blBu7SBytyyJxx+NVRNeJZjILVHnSthQLRAKZJtFeIOOmpyoyDf/ID8ejye7x8jI2MjSylzR71DNblRGbqpIJLIbY0uWLnlfKzQQwifQboytkkZZ5rU0vMYbLPTAINnSZKWMor4q6WHPMCEtdP4tmez1XT+eIwEhJGU3Y7BS5sS57u2xw0cMI5tcXCLzne5tY2u9PGxxalbSjvgoD+9J5G57iNyEI+2yUqa4PB96fybiEQX3v4TQgVU8OOQ0CZAi+dyVk+aWZrITC2s2LldnKzgrZRT9aBNTD+B4Lza21ifOdcdlv191Cw+lwxspEommz5wquxRDlsh0blARJs3vniOEZKN1n81JMbMw5TxFuUYUYSI3sW6VTxqKo+MiccSI4DmBiWkHyeV4da/KYFnyui1aRcpdG7FC7pYvx3H2ijalyNZUbjcKDxPDbjZoSqRlH3cc1709A/8zEY+QO59e/eJxyPyZZBgCLQ2C23L7qpwaaY9JdFyk3GU9nIJ64/LqnQsbtq7FY0oR0eHwm8VlZeWn83i87kGDr4+5+KpFBrh3/NH4oOb2s9b7nL5912fJw9o7nDmgtl+q7z2/ST6wjj8aOYF3sBOKhLpXZXJ7GXee5qmzd0QJkSkqUU29LJGpmVFRMo0Myl0aUvuqjOzpKCqo9zBRUqJGt1p/rj6Ssg+iqmmUkUxcVHZd7vjpuaunYEcEmViRrGY3SlF2Wb3kfc2ytYu02cAraxM0sn1V2ZRaYpKckSD3xZMtqL80lZKHsg/3KyLrL8+0L7eXWh8a8Y46tdC5QSWF9hImSkrU9FZ0XKRsr1BTI1qm13k3quOPxtUblpN7aZ803tUJqcn2VbWsu2z2zGtpJ84eJfX92MEk3VApUyKTv/ACgIMAQbjXrBJNlQn6ksgsrMx9pk5R6VJ/Jci8lqbR+EMv+anbbtSbjy0BwdN2xEclph6Av92HdsgOdPagLrJ91R4YUZ4ltyjLy9cDe3705L7FK+fr7U5eTl0okcknsjcfW1IyE2G8b8bs6UrWoHAAVX7ZN0RWWlUYHReJEDIwMEjOSKiUPFTuVb/c7fe2GARW1G03Cjb54RE0EFQulFGJf+/1VXHRJZU3cJAo7L+NrTVnKAmn1zeBEpl8Iuul59Q3RNZLzn9jZgdKN6r3+qrf0gP9RohMz7tR+I3ReV8VW6aCRggMlG5U7/VVNYJL/xMPeCIbEN0oVsr0Ul9V/98wPfRwAHWjeqmvqocPRUuXBjyRaVl/mp0iQBH4BhCgRNanY2TfwBtDq0AR0EMEKJFRIqMIUAQGPAKUyAb8I9TDzyN1iSLQxwhQIqNERhGgCAx4BCiRDfhH2MefPlocRUAPEfh/fjh/G1Y55SoAAAAASUVORK5CYII=;" vertex="1" parent="1">
          <mxGeometry x="670" y="40" width="266.09" height="60" as="geometry" />
        </mxCell>
        <mxCell id="bmUnphvoSeGLtTHIExNd-25" style="edgeStyle=orthogonalEdgeStyle;rounded=0;orthogonalLoop=1;jettySize=auto;html=1;exitX=0;exitY=0.5;exitDx=0;exitDy=0;entryX=1;entryY=0.5;entryDx=0;entryDy=0;shape=link;" edge="1" parent="1" source="bmUnphvoSeGLtTHIExNd-16" target="bmUnphvoSeGLtTHIExNd-24">
          <mxGeometry relative="1" as="geometry" />
        </mxCell>
        <mxCell id="bmUnphvoSeGLtTHIExNd-28" value="" style="edgeStyle=orthogonalEdgeStyle;rounded=0;orthogonalLoop=1;jettySize=auto;html=1;" edge="1" parent="1" source="bmUnphvoSeGLtTHIExNd-16" target="bmUnphvoSeGLtTHIExNd-27">
          <mxGeometry relative="1" as="geometry" />
        </mxCell>
        <mxCell id="bmUnphvoSeGLtTHIExNd-16" value="KCCA" style="ellipse;whiteSpace=wrap;html=1;fillColor=#f8cecc;strokeColor=#b85450;" vertex="1" parent="1">
          <mxGeometry x="330" y="180" width="60" height="40" as="geometry" />
        </mxCell>
        <mxCell id="bmUnphvoSeGLtTHIExNd-19" value="" style="shape=curlyBracket;whiteSpace=wrap;html=1;rounded=1;flipH=1;direction=west;" vertex="1" parent="1">
          <mxGeometry x="404" y="155" width="20" height="90" as="geometry" />
        </mxCell>
        <mxCell id="bmUnphvoSeGLtTHIExNd-20" value="&lt;p style=&quot;line-height: 100%&quot;&gt;1.Unsupervised&lt;/p&gt;&lt;p style=&quot;line-height: 100%&quot;&gt;2. Non-linear Projection&lt;/p&gt;&lt;p style=&quot;line-height: 100%&quot;&gt;3. with kernel trick&lt;/p&gt;&lt;p style=&quot;line-height: 100%&quot;&gt;4. two views&lt;/p&gt;" style="text;html=1;align=left;verticalAlign=middle;resizable=0;points=[];autosize=1;strokeColor=none;" vertex="1" parent="1">
          <mxGeometry x="425" y="145" width="140" height="110" as="geometry" />
        </mxCell>
        <mxCell id="bmUnphvoSeGLtTHIExNd-24" value="&lt;b&gt;[1]&lt;/b&gt;&amp;nbsp;&lt;span&gt;A kernel method for canonical correlation analysis&lt;br&gt;&lt;/span&gt;" style="rounded=1;whiteSpace=wrap;html=1;align=left;fillColor=#f5f5f5;strokeColor=#666666;fontColor=#333333;" vertex="1" parent="1">
          <mxGeometry x="10" y="170" width="290" height="60" as="geometry" />
        </mxCell>
        <mxCell id="bmUnphvoSeGLtTHIExNd-33" value="" style="edgeStyle=orthogonalEdgeStyle;rounded=0;orthogonalLoop=1;jettySize=auto;html=1;shape=link;" edge="1" parent="1" source="bmUnphvoSeGLtTHIExNd-27" target="bmUnphvoSeGLtTHIExNd-32">
          <mxGeometry relative="1" as="geometry" />
        </mxCell>
        <mxCell id="bmUnphvoSeGLtTHIExNd-27" value="MCCA" style="ellipse;whiteSpace=wrap;html=1;fillColor=#f8cecc;strokeColor=#b85450;" vertex="1" parent="1">
          <mxGeometry x="330" y="290" width="60" height="40" as="geometry" />
        </mxCell>
        <mxCell id="bmUnphvoSeGLtTHIExNd-30" value="" style="shape=curlyBracket;whiteSpace=wrap;html=1;rounded=1;flipH=1;direction=west;" vertex="1" parent="1">
          <mxGeometry x="405" y="265" width="20" height="90" as="geometry" />
        </mxCell>
        <mxCell id="bmUnphvoSeGLtTHIExNd-31" value="&lt;p style=&quot;line-height: 100%&quot;&gt;1. Unsupervised&lt;/p&gt;&lt;p style=&quot;line-height: 100%&quot;&gt;2. Linear Projection&lt;/p&gt;&lt;p style=&quot;line-height: 100%&quot;&gt;3. multi-view scenario&lt;/p&gt;&lt;p style=&quot;line-height: 100%&quot;&gt;4. Maximize the sum of \(corr\) between any two views&lt;/p&gt;" style="text;html=1;align=left;verticalAlign=middle;resizable=0;points=[];autosize=1;strokeColor=none;" vertex="1" parent="1">
          <mxGeometry x="424" y="255" width="300" height="110" as="geometry" />
        </mxCell>
        <mxCell id="bmUnphvoSeGLtTHIExNd-32" value="&lt;b&gt;[1]&lt;/b&gt;&amp;nbsp;&lt;span&gt;Multiset canonical correlations analysis and multi-&lt;/span&gt;&lt;div&gt;spectral, truly multitemporal remote sensing data&lt;/div&gt;&lt;div&gt;&lt;b&gt;[2]&lt;/b&gt;&amp;nbsp;&lt;span&gt;Multi-view canonical correlation anal&lt;/span&gt;&lt;span&gt;ysis&lt;/span&gt;&lt;/div&gt;" style="rounded=1;whiteSpace=wrap;html=1;align=left;fillColor=#f5f5f5;strokeColor=#666666;fontColor=#333333;" vertex="1" parent="1">
          <mxGeometry x="10" y="280" width="290" height="60" as="geometry" />
        </mxCell>
      </root>
    </mxGraphModel>
  </diagram>
</mxfile>
